<svg width="323" height="214" viewBox="0 0 323 214" fill="none" xmlns="http://www.w3.org/2000/svg">
<mask id="path-1-inside-1" fill="white">
<path fill-rule="evenodd" clip-rule="evenodd" d="M45 0C20.1472 0 0 20.1472 0 45V146C0 170.853 20.1472 191 45 191H194.094L209.918 212.226C211.638 214.534 215.307 213.329 215.323 210.45L215.432 191H278C302.853 191 323 170.853 323 146V45C323 20.1472 302.853 0 278 0H45Z"/>
</mask>
<path fill-rule="evenodd" clip-rule="evenodd" d="M45 0C20.1472 0 0 20.1472 0 45V146C0 170.853 20.1472 191 45 191H194.094L209.918 212.226C211.638 214.534 215.307 213.329 215.323 210.45L215.432 191H278C302.853 191 323 170.853 323 146V45C323 20.1472 302.853 0 278 0H45Z" fill="white"/>
<path d="M194.094 191L195.698 189.805L195.098 189H194.094V191ZM209.918 212.226L211.521 211.031L211.521 211.031L209.918 212.226ZM215.323 210.45L217.323 210.461L217.323 210.461L215.323 210.45ZM215.432 191V189H213.443L213.432 190.989L215.432 191ZM2 45C2 21.2518 21.2518 2 45 2V-2C19.0426 -2 -2 19.0426 -2 45H2ZM2 146V45H-2V146H2ZM45 189C21.2518 189 2 169.748 2 146H-2C-2 171.957 19.0426 193 45 193V189ZM194.094 189H45V193H194.094V189ZM211.521 211.031L195.698 189.805L192.491 192.195L208.314 213.422L211.521 211.031ZM213.323 210.439C213.317 211.399 212.095 211.8 211.521 211.031L208.314 213.422C211.182 217.269 217.296 215.259 217.323 210.461L213.323 210.439ZM213.432 190.989L213.323 210.439L217.323 210.461L217.432 191.011L213.432 190.989ZM278 189H215.432V193H278V189ZM321 146C321 169.748 301.748 189 278 189V193C303.957 193 325 171.957 325 146H321ZM321 45V146H325V45H321ZM278 2C301.748 2 321 21.2518 321 45H325C325 19.0426 303.957 -2 278 -2V2ZM45 2H278V-2H45V2Z" fill="black" mask="url(#path-1-inside-1)"/>
</svg>
