<svg width="1235" height="889" viewBox="0 0 1235 889" fill="none" xmlns="http://www.w3.org/2000/svg">
<path d="M12.6939 109.307C5.99276 61.1061 43.5204 18.1378 92.185 18.2918L1119.57 21.5438C1166.19 21.6914 1202.8 61.5018 1199.06 107.966L1159.01 605.298C1155.7 646.395 1121.7 678.245 1080.47 678.866L891.194 681.716C848.597 682.358 813.975 716.269 812.45 758.843L810.037 826.189C809.134 851.403 779.403 864.308 760.367 847.749L595.646 704.458C581.496 692.149 563.473 685.203 544.722 684.832L159.713 677.213C120.395 676.435 87.473 647.196 82.0579 608.245L12.6939 109.307Z" fill="#B06206"/>
<path d="M41.6939 91.3074C34.9928 43.1061 72.5204 0.137756 121.185 0.291796L1148.57 3.54382C1195.19 3.69136 1231.8 43.5018 1228.06 89.9657L1188.01 587.298C1184.7 628.395 1150.7 660.245 1109.47 660.866L920.194 663.716C877.597 664.358 842.975 698.269 841.45 740.843L839.037 808.189C838.134 833.403 808.403 846.308 789.367 829.749L624.646 686.458C610.496 674.149 592.473 667.203 573.722 666.832L188.713 659.213C149.395 658.435 116.473 629.196 111.058 590.245L41.6939 91.3074Z" fill="#E7B466"/>
</svg>
